<svg version="1.1" xmlns="http://www.w3.org/2000/svg" xmlns:xlink="http://www.w3.org/1999/xlink" width="40.80095" height="50.63056" viewBox="0,0,40.80095,50.63056"><g transform="translate(-219.60925,-154.68472)"><g data-paper-data="{&quot;isPaintingLayer&quot;:true}" fill-rule="nonzero" stroke-linejoin="miter" stroke-miterlimit="10" stroke-dasharray="" stroke-dashoffset="0" style="mix-blend-mode: normal"><path d="M225.03853,177.33033l2.90217,-1.28771l28.77701,2.43197l-0.01378,3.13289l-28.91577,2.2373l-2.83058,-1.54937z" fill="#d5d5d5" stroke="#000000" stroke-width="0.5" stroke-linecap="round"/><path d="M223.20484,176.56697l-3.13107,-0.42756l-0.04481,-3.25138l3.01727,-0.57785z" fill="#d5d5d5" stroke="#000000" stroke-width="0.5" stroke-linecap="round"/><path d="M238.77783,155.02574l10.47382,0.76643l-10.52569,1.40063z" fill="#d5d5d5" stroke="#000000" stroke-width="0.5" stroke-linecap="round"/><path d="M228.05432,176.05081l2.80235,-18.91006l5.02492,-0.0842l-0.08581,19.50669" data-paper-data="{&quot;index&quot;:null}" fill="#d5d5d5" stroke="#000000" stroke-width="0.5" stroke-linecap="round"/><path d="M229.57108,167.19611l6.14782,-0.03207" fill="none" stroke="#000000" stroke-width="0.5" stroke-linecap="round"/><path d="M228.67626,155.60616l8.63023,0.03796l-0.00624,1.41867l-8.63023,-0.03796z" fill="#d5d5d5" stroke="#000000" stroke-width="0.5" stroke-linecap="butt"/><path d="M237.54606,154.93582l0.82756,0.00364l-0.0117,2.66l-0.82756,-0.00364z" fill="#d5d5d5" stroke="#000000" stroke-width="0.5" stroke-linecap="butt"/><path d="M225.04122,178.05285l16.59981,0.07302l-0.01638,3.72401l-16.59981,-0.07302z" fill="none" stroke="#000000" stroke-width="0.5" stroke-linecap="butt"/><path d="M237.99399,180.76989c-0.53866,-0.00237 -0.9737,-0.3748 -0.97169,-0.83185c0.00201,-0.45705 0.44032,-0.82564 0.97897,-0.82327c0.53866,0.00237 0.9737,0.3748 0.97169,0.83185c-0.00201,0.45705 -0.44032,0.82564 -0.97897,0.82327z" fill="none" stroke="#000000" stroke-width="0.5" stroke-linecap="butt"/><path d="M237.91287,179.05527l1.59912,-0.70231l2.95582,-0.04611l6.02622,0.73586" fill="#d5d5d5" stroke="#000000" stroke-width="0.5" stroke-linecap="round"/><path d="M248.48649,180.75693l-6.80195,0.91588l-2.12878,0.16797l-1.94547,-1.1908" fill="#d5d5d5" stroke="#000000" stroke-width="0.5" stroke-linecap="round"/><path d="M241.63739,178.95343l6.91601,0.03042l-0.00806,1.83245l-6.91601,-0.03042z" fill="#424242" stroke="#000000" stroke-width="0.5" stroke-linecap="butt"/><path d="M239.98254,178.88704l1.71422,0.00754l-0.00832,1.89156l-1.71422,-0.00754z" fill="#47bfbf" stroke="#000000" stroke-width="0.5" stroke-linecap="butt"/><path d="M248.6784,178.98385l4.43334,0.0195l-0.00806,1.83245l-4.43334,-0.0195z" fill="#0011ba" stroke="#000000" stroke-width="0.5" stroke-linecap="butt"/><path d="M256.7722,178.48799l3.3657,0.84238l-0.12316,1.12259l-3.43391,1.22625" fill="#d5d5d5" stroke="#000000" stroke-width="0.5" stroke-linecap="round"/><path d="M238.044,202.77956l10.51789,1.3336l-10.47746,0.5256z" data-paper-data="{&quot;index&quot;:null}" fill="#d5d5d5" stroke="#000000" stroke-width="0.5" stroke-linecap="round"/><path d="M235.41095,183.41858l-0.08581,19.50669l-5.02398,-0.1284l-2.63588,-18.93398" data-paper-data="{&quot;index&quot;:null}" fill="#d5d5d5" stroke="#000000" stroke-width="0.5" stroke-linecap="round"/><path d="M235.12639,192.81674l-6.1473,-0.08615" data-paper-data="{&quot;index&quot;:null}" fill="none" stroke="#000000" stroke-width="0.5" stroke-linecap="round"/><path d="M228.54769,202.89381l8.63023,0.03796l-0.00624,1.41867l-8.63023,-0.03796z" data-paper-data="{&quot;index&quot;:null}" fill="#d5d5d5" stroke="#000000" stroke-width="0.5" stroke-linecap="butt"/><path d="M236.9826,202.40055l0.82756,0.00364l-0.0117,2.66l-0.82756,-0.00364z" data-paper-data="{&quot;index&quot;:null}" fill="#d5d5d5" stroke="#000000" stroke-width="0.5" stroke-linecap="butt"/><path d="M229.54794,172.45701l7.3889,0.0325l-0.01794,4.07867l-7.3889,-0.0325z" fill="#d5d5d5" stroke="#000000" stroke-width="0.5" stroke-linecap="butt"/><path d="M234.85,176.55908l-0.04143,-4.01982" fill="none" stroke="#000000" stroke-width="0.5" stroke-linecap="round"/><path d="M223.22018,173.07941l6.26579,0.02756l-0.0117,2.66l-6.26579,-0.02756z" fill="#d5d5d5" stroke="#000000" stroke-width="0.5" stroke-linecap="butt"/><path d="M223.03799,187.62024l-3.13107,-0.42756l-0.04481,-3.25138l3.01727,-0.57785z" fill="#d5d5d5" stroke="#000000" stroke-width="0.5" stroke-linecap="round"/><path d="M229.38109,183.51028l7.3889,0.0325l-0.01794,4.07867l-7.3889,-0.0325z" fill="#d5d5d5" stroke="#000000" stroke-width="0.5" stroke-linecap="butt"/><path d="M234.68316,187.61235l-0.04143,-4.01982" fill="none" stroke="#000000" stroke-width="1" stroke-linecap="round"/><path d="M223.17833,184.13268l6.26579,0.02756l-0.0117,2.66l-6.26579,-0.02756z" fill="#d5d5d5" stroke="#000000" stroke-width="0.5" stroke-linecap="butt"/><path d="M233.3125,162.3125v-5.125h2.375v5.125z" fill="#0011ba" stroke="none" stroke-width="0" stroke-linecap="butt"/><path d="M232.6875,202.6875v-5.125h2.375v5.125z" fill="#0011ba" stroke="none" stroke-width="0" stroke-linecap="butt"/><path d="M233.3125,164.4375v-6h1v6z" fill="#0011ba" stroke="none" stroke-width="0" stroke-linecap="butt"/><path d="M232.6875,201.0625v-6h1v6z" fill="#0011ba" stroke="none" stroke-width="0" stroke-linecap="butt"/><path d="M254.67363,178.98385l1.8131,0.0195l-0.0033,1.83245l-1.8131,-0.0195z" fill="#0011ba" stroke="#000000" stroke-width="0.5" stroke-linecap="butt"/></g></g></svg>